<svg xmlns="http://www.w3.org/2000/svg" viewBox="0 0 431.36 405.27"><defs><style>.cls-1,.cls-3{fill:#fff;}.cls-1{stroke:#fff;stroke-miterlimit:10;}.cls-2{fill:#db565b;}</style></defs><g id="图层_3_复制" data-name="图层 3_复制"><path class="cls-1" d="M28.85.76H194.18a12,12,0,0,1,12,12V45.45a12,12,0,0,1-12,12H12.5a12,12,0,0,1-12-12V29.1A28.35,28.35,0,0,1,28.85.76Z"/><path class="cls-1" d="M385.91.5h16.35a28.35,28.35,0,0,1,28.35,28.35V114.5a12,12,0,0,1-12,12H385.91a12,12,0,0,1-12-12V12.5A12,12,0,0,1,385.91.5Z"/><path class="cls-1" d="M328.86,347.25h90a12,12,0,0,1,12,12v16.65a28.35,28.35,0,0,1-28.35,28.35H328.86a12,12,0,0,1-12-12v-33A12,12,0,0,1,328.86,347.25Z"/><path class="cls-1" d="M12.5,347.81h98.23a12,12,0,0,1,12,12V392.5a12,12,0,0,1-12,12H28.85A28.35,28.35,0,0,1,.5,376.16V359.81a12,12,0,0,1,12-12Z"/><rect class="cls-1" x="147.48" y="126.5" width="56.69" height="137.87" rx="12"/><path class="cls-1" d="M244.43,279.43h-41.2l-.41,0-.4,0H83.64a12,12,0,0,0-12,12v32.69a12,12,0,0,0,12,12H244.43a12,12,0,0,0,12-12V291.43A12,12,0,0,0,244.43,279.43Z" transform="translate(-71.14 -71.75)"/><path class="cls-1" d="M203.23,279.43h-.81l.4,0Z" transform="translate(-71.14 -71.75)"/><path class="cls-1" d="M218.62,260.05v3.47s0,.08,0,.12a15.81,15.81,0,0,1-15.81,15.81l-.56,0h-3.61v19.41H242V260.05Z" transform="translate(-71.14 -71.75)"/><path class="cls-1" d="M203.63,279.43v0l-.4,0Z" transform="translate(-71.14 -71.75)"/><path class="cls-1" d="M218.62,263.72c0,.08,0,.15,0,.23h0Z" transform="translate(-71.14 -71.75)"/><rect class="cls-1" x="326.17" y="0.5" width="76.09" height="56.69" rx="12"/><rect class="cls-1" x="0.94" y="23.22" width="56.69" height="57.58" rx="12"/><rect class="cls-1" x="373.36" y="285.75" width="57" height="101" rx="12"/></g><g id="图层_4" data-name="图层 4"><circle class="cls-2" cx="268.19" cy="40.65" r="40.15"/><rect class="cls-2" x="236.86" y="151.25" width="71.48" height="178.25" rx="12"/><rect class="cls-2" x="216.86" y="126.5" width="91.48" height="49.5" rx="12"/><path class="cls-2" d="M260.25,356.5H215.94a12,12,0,0,0-12,12v33.15l.28,2.67a12.06,12.06,0,0,0,11.72,9.43h44.31a12,12,0,0,0,12-12V368.5A12,12,0,0,0,260.25,356.5Z" transform="translate(-71.14 -71.75)"/><path class="cls-2" d="M203.94,401.75a12.12,12.12,0,0,0,.28,2.57l-.28-2.67Z" transform="translate(-71.14 -71.75)"/><path class="cls-2" d="M307.92,388.52a17.26,17.26,0,0,1,.17,2.29,18,18,0,0,1-36.09,0,19.14,19.14,0,0,1,.16-2.29H203.94v13.13l.6,5.58C213.22,446.92,248.86,477,291,477c48.55,0,88.49-39.94,88.49-88.49Z" transform="translate(-71.14 -71.75)"/><rect class="cls-2" x="191.22" y="308.88" width="9.89" height="23.49"/><rect class="cls-2" x="236.86" y="305.88" width="4.9" height="21.79"/><rect class="cls-3" x="236.21" y="314.46" width="0.65" height="3.7"/><path class="cls-2" d="M318.1,240.89H298.88v6.8l.57.07h0a8.89,8.89,0,0,1,8.56,8.89c0,.14,0,.28,0,.42v2.33H318.1Z" transform="translate(-71.14 -71.75)"/><path class="cls-3" d="M308,256.21h0c0,.07,0,.13,0,.19Z" transform="translate(-71.14 -71.75)"/></g></svg>